<?xml version="1.0" encoding="UTF-8"?>
<!-- Generated by Pixelmator Pro 3.7 -->
<svg width="380" height="380" viewBox="0 0 380 380" xmlns="http://www.w3.org/2000/svg">
    <g id="Group">
        <path id="Path" fill="#e24329" stroke="none" d="M 334.982239 159.870041 L 334.571136 158.794708 L 293.735321 52.252167 C 292.919312 50.164825 291.451813 48.406464 289.541718 47.191956 C 287.637848 45.971191 285.404999 45.395599 283.140503 45.515839 C 280.888824 45.635986 278.725494 46.458221 276.960724 47.862457 C 275.208618 49.279327 273.943542 51.195892 273.348999 53.3591 L 245.777206 137.744308 L 134.225128 137.744308 L 106.65329 53.3591 C 106.058754 51.195892 104.793732 49.279327 103.041603 47.862457 C 101.276833 46.458282 99.11364 45.635986 96.861832 45.515839 C 94.597473 45.395599 92.364502 45.971191 90.460732 47.191956 C 88.550499 48.406464 87.082985 50.164825 86.267029 52.252167 L 45.431301 158.801056 L 45.020077 159.870041 C 32.919796 191.43306 43.229973 227.113785 70.175621 247.493759 C 70.226105 247.525391 70.270432 247.563309 70.321091 247.601303 L 70.681671 247.873276 L 132.884094 294.439789 L 163.650223 317.72934 L 182.373032 331.885254 C 186.882858 335.300934 193.119476 335.300934 197.629456 331.885254 L 216.352127 317.72934 L 247.111893 294.439789 L 309.681244 247.601303 C 309.73822 247.557007 309.78891 247.519058 309.845703 247.474747 C 336.772339 227.094818 347.076233 191.426712 334.982239 159.870041 Z"/>
        <path id="path1" fill="#fc6d26" stroke="none" d="M 334.982239 159.870041 L 334.571136 158.794708 C 314.311371 162.956726 295.651855 171.527435 279.674286 183.482193 C 279.415009 183.671936 231.121643 220.193939 190.00116 251.282593 C 220.533157 274.369751 247.111893 294.439789 247.111893 294.439789 L 309.681244 247.601303 C 309.73822 247.557007 309.788879 247.519058 309.845703 247.474747 C 336.772339 227.094818 347.076202 191.426712 334.982239 159.870041 Z"/>
        <path id="path2" fill="#fca326" stroke="none" d="M 132.884094 294.439758 L 163.650223 317.72934 L 182.373001 331.885223 C 186.882828 335.300903 193.119476 335.300903 197.629456 331.885223 L 216.352081 317.72934 L 247.111893 294.439758 C 247.111893 294.439758 220.533157 274.369751 190.00116 251.282578 C 159.462799 274.369751 132.884094 294.439758 132.884094 294.439758 Z"/>
        <path id="path3" fill="#fc6d26" stroke="none" d="M 100.321671 183.482193 C 84.350418 171.533783 65.697273 162.956726 45.431286 158.801056 L 45.020061 159.870041 C 32.919781 191.43306 43.229958 227.113785 70.175591 247.493759 C 70.226089 247.525391 70.270416 247.563309 70.321075 247.601303 L 70.681671 247.873276 L 132.884094 294.439789 C 132.884094 294.439789 159.462799 274.369751 190.00116 251.282593 C 148.880707 220.193939 100.581161 183.671967 100.321701 183.482193 Z"/>
    </g>
</svg>
